<?xml version="1.0" encoding="UTF-8" standalone="no"?>
<svg
   xmlns:dc="http://purl.org/dc/elements/1.1/"
   xmlns:cc="http://creativecommons.org/ns#"
   xmlns:rdf="http://www.w3.org/1999/02/22-rdf-syntax-ns#"
   xmlns:svg="http://www.w3.org/2000/svg"
   xmlns="http://www.w3.org/2000/svg"
   xmlns:sodipodi="http://sodipodi.sourceforge.net/DTD/sodipodi-0.dtd"
   xmlns:inkscape="http://www.inkscape.org/namespaces/inkscape"
   version="1.1"
   id="svg2"
   xml:space="preserve"
   width="1000"
   height="666.66669"
   viewBox="0 0 1000 666.66669"
   sodipodi:docname="5339594.eps"><metadata
     id="metadata8"><rdf:RDF><cc:Work
         rdf:about=""><dc:format>image/svg+xml</dc:format><dc:type
           rdf:resource="http://purl.org/dc/dcmitype/StillImage" /></cc:Work></rdf:RDF></metadata><defs
     id="defs6"><clipPath
       clipPathUnits="userSpaceOnUse"
       id="clipPath72"><path
         d="m 4739.02,4337.7 -27.63,27.62 -27.62,-27.62 -14.08,14.08 27.63,27.62 -27.63,27.62 14.08,14.08 27.62,-27.62 27.63,27.62 14.07,-14.08 -27.61,-27.62 27.61,-27.62 -14.07,-14.08"
         id="path70" /></clipPath></defs><sodipodi:namedview
     pagecolor="#ffffff"
     bordercolor="#666666"
     borderopacity="1"
     objecttolerance="10"
     gridtolerance="10"
     guidetolerance="10"
     inkscape:pageopacity="0"
     inkscape:pageshadow="2"
     inkscape:window-width="640"
     inkscape:window-height="480"
     id="namedview4" /><g
     id="g10"
     inkscape:groupmode="layer"
     inkscape:label="ink_ext_XXXXXX"
     transform="matrix(1.3333333,0,0,-1.3333333,0,666.66667)"><g
       id="g12"
       transform="scale(0.1)"><path
         d="M 0.00390625,0 H 7500.0039 V 5000 H 0.00390625 Z"
         style="fill:#512572;fill-opacity:1;fill-rule:nonzero;stroke:none"
         id="path14" /><path
         d="M 0.00390625,0 H 7500.0039 V 5000 H 0.00390625 Z"
         style="fill:#512572;fill-opacity:1;fill-rule:nonzero;stroke:none"
         id="path16" /><path
         d="m 1407.98,1558.61 -87.28,-87.28 c -33.18,-33.18 -86.98,-33.18 -120.17,0 l -1.95,1.97 c -33.18,33.17 -33.18,86.98 0,120.16 l 273.11,273.11 c 33.18,33.18 33.18,86.98 0,120.17 l -1.96,1.95 c -33.18,33.18 -86.98,33.18 -120.17,0 l -41.25,-41.25 c -33.18,-33.19 -86.99,-33.19 -120.16,0 l -1.96,1.95 c -33.19,33.19 -33.19,86.98 0,120.17 l 104.95,104.95 c 33.18,33.18 33.18,86.99 0,120.17 l -1.95,1.96 c -33.19,33.18 -86.99,33.18 -120.17,0 l -185.59,-185.6 c -33.184,-33.18 -86.989,-33.18 -120.172,0 l -1.953,1.95 c -33.184,33.19 -33.184,87 0,120.18 l 121.89,121.89 c 33.185,33.18 33.185,86.98 0,120.16 l -1.957,1.96 c -33.179,33.18 -86.984,33.18 -120.168,0 L -871.41,744.68 c -33.184,-33.168 -33.184,-86.981 0,-120.16 l 1.953,-1.95 c 33.184,-33.191 86.988,-33.191 120.172,0 l 205.551,205.551 c 33.183,33.188 86.98,33.188 120.168,0 l 1.953,-1.949 c 33.183,-33.18 33.183,-86.992 0,-120.18 l -129.895,-129.89 c -33.183,-33.18 -33.183,-86.981 0,-120.172 l 1.953,-1.95 c 33.184,-33.179 86.989,-33.179 120.172,0 33.184,33.18 86.981,33.18 120.164,0 l 1.953,-1.949 c 33.192,-33.191 33.192,-86.992 0,-120.179 l -75.652,-75.653 c -33.184,-33.187 -33.184,-86.98 0,-120.168 l 1.953,-1.949 c 33.188,-33.184 86.988,-33.184 120.168,0 l 205.5548,205.547 c 33.1836,33.18 86.9805,33.18 120.1641,0 l 1.9609,-1.957 c 33.1832,-33.18 33.1832,-86.981 0,-120.16 l -87.2734,-87.274 c -33.1836,-33.1794 -33.1836,-86.988 0,-120.1677 l 1.9531,-1.96092 c 33.1836,-33.17968 86.9883,-33.17968 120.1715,0 L 1530.09,1436.48 c 33.19,33.18 33.19,86.99 0,120.18 l -1.95,1.95 c -33.18,33.18 -86.98,33.18 -120.16,0"
         style="fill:#3d2057;fill-opacity:1;fill-rule:nonzero;stroke:none"
         id="path18" /><path
         d="M 5025.13,0 H 1716.41 l 2847.98,2848.01 c 32.11,32.12 74.19,48.17 116.28,48.17 42.08,0 84.17,-16.06 116.28,-48.16 l 3.78,-3.79 c 64.22,-64.21 64.22,-168.33 0,-232.55 l -235.89,-235.89 c -64.22,-64.22 -64.22,-168.34 0,-232.56 l 3.78,-3.79 c 32.11,-32.1 74.19,-48.16 116.27,-48.16 42.09,0.01 84.18,16.06 116.29,48.17 l 359.17,359.16 c 32.11,32.12 74.19,48.17 116.27,48.17 42.08,0 84.17,-16.06 116.28,-48.16 l 3.79,-3.78 c 64.22,-64.22 64.22,-168.34 0,-232.56 l -203.11,-203.11 c -64.22,-64.22 -64.22,-168.34 0,-232.56 l 3.78,-3.78 c 32.11,-32.11 74.19,-48.17 116.28,-48.17 42.08,0 84.17,16.06 116.28,48.17 l 79.83,79.83 c 32.11,32.11 74.19,48.17 116.28,48.17 42.08,0 84.16,-16.06 116.27,-48.17 l 3.79,-3.78 c 64.22,-64.21 64.22,-168.33 0,-232.55 l -528.52,-528.54 c -64.23,-64.22 -64.23,-168.341 0,-232.56 l 3.78,-3.781 c 32.1,-32.109 74.19,-48.16 116.27,-48.16 42.09,0 84.17,16.051 116.28,48.16 l 168.89,168.891 c 32.11,32.11 74.2,48.17 116.29,48.17 42.08,0 84.16,-16.06 116.27,-48.16 l 3.78,-3.79 c 64.21,-64.22 64.21,-168.341 0,-232.56 l -834,-834 m 126.01,2276 27.63,-27.62 14.07,14.08 -27.62,27.62 27.62,27.62 -14.07,14.08 -27.63,-27.62 -27.62,27.62 -14.08,-14.08 27.63,-27.62 -27.63,-27.62 14.08,-14.08 27.62,27.62 m 146.54,146.55 27.62,-27.63 14.08,14.08 -27.62,27.62 27.62,27.62 -14.07,14.08 -27.63,-27.62 -27.62,27.62 -14.08,-14.08 27.63,-27.62 -27.63,-27.62 14.08,-14.08 27.62,27.63"
         style="fill:#4a2469;fill-opacity:1;fill-rule:nonzero;stroke:none"
         id="path20" /><path
         d="m 7053.05,201.379 c -42.08,0 -84.17,16.051 -116.28,48.16 l -3.79,3.781 c -64.22,64.219 -64.22,168.34 0,232.551 l 146.42,146.418 c 64.22,64.223 64.22,168.34 0,232.563 l -3.78,3.777 c -32.11,32.113 -74.19,48.16 -116.28,48.16 -42.08,0 -84.17,-16.047 -116.28,-48.16 -32.11,-32.109 -74.19,-48.16 -116.28,-48.16 -42.08,0 -84.17,16.051 -116.28,48.16 l -3.78,3.781 c -64.21,64.219 -64.21,168.34 0,232.56 l 251.38,251.38 c 64.22,64.22 64.22,168.34 0,232.56 l -3.78,3.78 c -32.11,32.11 -74.19,48.17 -116.28,48.17 -42.08,0 -84.17,-16.06 -116.28,-48.17 l -397.79,-397.8 c -32.11,-32.11 -74.19,-48.16 -116.28,-48.16 -42.08,0 -84.17,16.05 -116.28,48.16 l -3.79,3.78 c -64.22,64.22 -64.22,168.34 0,232.56 L 7500,2943.62 V 580.211 L 7169.32,249.539 c -32.1,-32.109 -74.18,-48.16 -116.27,-48.16"
         style="fill:#4c246a;fill-opacity:1;fill-rule:nonzero;stroke:none"
         id="path22" /><path
         d="M 0.00390625,1846.93 V 4417.18 C 29.9453,4393.17 66.332,4381.17 102.727,4381.17 c 42.086,0 84.168,16.06 116.281,48.17 l 359.164,359.16 c 32.105,32.11 74.187,48.17 116.273,48.17 42.086,0 84.168,-16.06 116.278,-48.17 l 3.785,-3.78 c 64.219,-64.22 64.219,-168.34 0,-232.56 l -203.11,-203.11 c -64.218,-64.21 -64.218,-168.34 0,-232.55 l 3.786,-3.79 c 32.109,-32.11 74.187,-48.16 116.273,-48.16 42.086,0 84.176,16.06 116.285,48.17 l 79.828,79.83 c 32.11,32.11 74.2,48.16 116.28,48.16 42.09,0 84.17,-16.05 116.28,-48.16 l 3.78,-3.78 c 64.22,-64.22 64.22,-168.34 0,-232.56 L 635.383,3427.68 c -64.219,-64.22 -64.219,-168.34 0,-232.56 l 3.781,-3.78 c 32.109,-32.11 74.191,-48.17 116.277,-48.17 42.086,0.01 84.172,16.06 116.282,48.17 l 168.887,168.89 c 32.12,32.11 74.19,48.16 116.28,48.16 42.08,0 84.17,-16.05 116.28,-48.16 l 3.78,-3.78 c 64.22,-64.22 64.22,-168.34 0,-232.56 L 0.00390625,1846.93 m 0,2836.08 V 5000 H 265.75 c -3.898,-35.96 -19.633,-70.87 -47.199,-98.44 L 0.00390625,4683.01"
         style="fill:#4c246a;fill-opacity:1;fill-rule:nonzero;stroke:none"
         id="path24" /><path
         d="m 3174.65,2356.22 c -42.08,0 -84.17,16.06 -116.28,48.16 l -3.77,3.79 c -64.22,64.22 -64.22,168.33 -0.01,232.55 l 168.89,168.9 c 64.22,64.21 64.22,168.34 0,232.55 l -3.78,3.78 c -32.11,32.11 -74.19,48.17 -116.28,48.17 -42.08,0 -84.17,-16.06 -116.28,-48.17 l -397.79,-397.8 c -32.11,-32.11 -74.2,-48.16 -116.28,-48.16 -42.09,0 -84.17,16.05 -116.28,48.16 l -3.78,3.79 c -64.22,64.21 -64.22,168.33 0,232.55 l 146.41,146.42 c 64.22,64.22 64.22,168.34 0,232.55 l -3.78,3.79 c -32.11,32.11 -74.19,48.16 -116.28,48.16 -42.08,0 -84.17,-16.06 -116.28,-48.17 -32.11,-32.11 -74.19,-48.16 -116.28,-48.16 -42.08,0 -84.17,16.05 -116.28,48.16 l -3.78,3.78 c -64.22,64.22 -64.22,168.34 0,232.56 l 251.38,251.39 c 64.22,64.22 64.22,168.34 0,232.55 l -3.78,3.79 c -32.11,32.1 -74.2,48.16 -116.28,48.16 -42.08,0 -84.17,-16.06 -116.28,-48.16 L 1643.99,3593.5 c -32.11,-32.11 -74.2,-48.16 -116.28,-48.16 -42.08,0 -84.17,16.05 -116.28,48.16 l -3.78,3.79 c -64.22,64.21 -64.22,168.33 0,232.55 L 2577.8,5000 H 5886.51 L 3290.93,2404.39 c -32.11,-32.11 -74.2,-48.17 -116.28,-48.17 m 1234.14,1706.5 27.62,-27.63 14.08,14.08 -27.62,27.62 27.62,27.63 -14.08,14.08 -27.62,-27.63 -27.62,27.63 -14.08,-14.08 27.62,-27.63 -27.62,-27.62 14.08,-14.08 27.62,27.63 m 146.54,146.53 27.62,-27.62 14.08,14.08 -27.62,27.62 27.62,27.62 -14.08,14.08 -27.62,-27.62 -27.62,27.62 -14.08,-14.08 27.63,-27.62 -27.63,-27.62 14.08,-14.08 27.62,27.62 m 156.06,156.07 27.63,-27.62 14.07,14.08 -27.61,27.62 27.61,27.62 -14.07,14.08 -27.63,-27.62 -27.62,27.62 -14.08,-14.08 27.63,-27.62 -27.63,-27.62 14.08,-14.08 27.62,27.62"
         style="fill:#4a2469;fill-opacity:1;fill-rule:nonzero;stroke:none"
         id="path26" /><path
         d="m 3398.73,390.809 -62.61,-62.618 c -23.81,-23.812 -62.41,-23.812 -86.22,0 l -1.41,1.411 c -23.81,23.808 -23.81,62.41 0,86.218 l 195.95,195.942 c 23.81,23.808 23.81,62.418 0,86.23 l -1.4,1.399 c -23.81,23.808 -62.41,23.808 -86.22,0 l -29.59,-29.602 c -23.81,-23.809 -62.41,-23.809 -86.22,0 l -1.41,1.402 c -23.81,23.809 -23.81,62.411 0,86.219 l 75.3,75.301 c 23.81,23.82 23.81,62.41 0,86.219 l -1.4,1.41 c -23.81,23.808 -62.41,23.808 -86.22,0 L 3094.12,787.172 c -23.81,-23.801 -62.4,-23.801 -86.22,0 l -1.4,1.41 c -23.81,23.809 -23.81,62.398 0,86.219 l 87.46,87.449 c 23.8,23.809 23.8,62.41 0,86.22 l -1.41,1.41 c -23.81,23.81 -62.41,23.81 -86.22,0 L 1763.29,-193.199 c -23.81,-23.809 -23.81,-62.41 0,-86.219 l 1.4,-1.391 c 23.81,-23.812 62.42,-23.812 86.22,0 l 147.48,147.481 c 23.81,23.808 62.42,23.808 86.23,0.008 l 1.4,-1.41 c 23.81,-23.809 23.81,-62.411 0,-86.219 l -93.2,-93.199 c -23.81,-23.813 -23.81,-62.422 0,-86.223 l 1.4,-1.399 c 23.81,-23.808 62.41,-23.808 86.22,0 23.81,23.809 62.41,23.809 86.22,0 l 1.4,-1.41 c 23.82,-23.808 23.82,-62.41 0,-86.218 l -54.28,-54.27 c -23.81,-23.812 -23.81,-62.422 0,-86.23 l 1.41,-1.403 c 23.81,-23.808 62.4,-23.808 86.21,0 l 147.49,147.492 c 23.81,23.809 62.41,23.809 86.21,0 l 1.41,-1.41 c 23.81,-23.812 23.81,-62.41 0,-86.222 l -62.62,-62.618 c -23.81,-23.8 -23.81,-62.41 0,-86.222 l 1.4,-1.387 c 23.81,-23.812 62.42,-23.812 86.23,0 L 3486.35,303.191 c 23.81,23.809 23.81,62.411 0,86.219 l -1.4,1.399 c -23.81,23.812 -62.41,23.812 -86.22,0"
         style="fill:#3d2057;fill-opacity:1;fill-rule:nonzero;stroke:none"
         id="path28" /><path
         d="m 4761.99,5315.96 -62.61,-62.62 c -23.81,-23.8 -62.41,-23.8 -86.22,0 l -1.41,1.4 c -23.8,23.81 -23.8,62.42 0,86.22 l 195.95,195.96 c 23.81,23.81 23.81,62.41 0,86.22 l -1.4,1.4 c -23.8,23.81 -62.41,23.81 -86.22,0 l -29.6,-29.6 c -23.8,-23.8 -62.41,-23.81 -86.22,0 l -1.39,1.4 c -23.82,23.81 -23.82,62.41 0,86.23 l 75.29,75.3 c 23.81,23.81 23.81,62.41 0,86.22 l -1.4,1.4 c -23.8,23.81 -62.41,23.81 -86.22,0 l -133.16,-133.16 c -23.81,-23.81 -62.4,-23.81 -86.21,0 l -1.41,1.4 c -23.81,23.81 -23.81,62.41 0,86.22 l 87.45,87.46 c 23.81,23.8 23.81,62.41 0,86.22 l -1.39,1.4 c -23.81,23.81 -62.42,23.81 -86.22,0 L 3126.55,4731.96 c -23.8,-23.81 -23.8,-62.41 0,-86.22 l 1.41,-1.41 c 23.8,-23.81 62.41,-23.8 86.22,0.01 l 147.48,147.48 c 23.81,23.81 62.41,23.81 86.22,0 l 1.4,-1.4 c 23.81,-23.81 23.81,-62.41 0,-86.22 l -93.2,-93.2 c -23.81,-23.81 -23.81,-62.41 0,-86.22 l 1.4,-1.4 c 23.81,-23.81 62.41,-23.81 86.22,0 23.81,23.81 62.41,23.81 86.22,0 l 1.4,-1.41 c 23.81,-23.8 23.81,-62.4 0,-86.22 l -54.28,-54.28 c -23.81,-23.81 -23.81,-62.41 0,-86.22 l 1.4,-1.4 c 23.81,-23.81 62.42,-23.81 86.22,0 l 147.48,147.49 c 23.81,23.8 62.42,23.8 86.23,0 l 1.4,-1.41 c 23.81,-23.8 23.81,-62.41 0,-86.22 l -62.62,-62.61 c -23.8,-23.81 -23.8,-62.41 0,-86.22 l 1.41,-1.41 c 23.8,-23.81 62.4,-23.81 86.21,0.01 l 1024.85,1024.86 c 23.8,23.8 23.8,62.41 0,86.22 l -1.41,1.4 c -23.81,23.81 -62.41,23.81 -86.22,0"
         style="fill:#42215a;fill-opacity:1;fill-rule:nonzero;stroke:none"
         id="path30" /><path
         d="m 843.848,594.07 -52.676,-52.679 c -20.027,-20.032 -52.504,-20.032 -72.531,0 l -1.18,1.191 c -20.027,20.02 -20.027,52.5 0,72.52 l 164.852,164.859 c 20.027,20.027 20.027,52.5 0,72.527 l -1.184,1.184 c -20.027,20.027 -52.504,20.027 -72.535,0 L 783.691,828.77 c -20.027,-20.032 -52.5,-20.032 -72.531,0 l -1.18,1.179 c -20.027,20.031 -20.027,52.5 0,72.531 l 63.352,63.352 c 20.027,20.027 20.027,52.508 0,72.538 l -1.184,1.18 c -20.027,20.03 -52.503,20.03 -72.531,0 L 587.594,927.531 c -20.028,-20.031 -52.504,-20.031 -72.535,0 l -1.18,1.18 c -20.031,20.019 -20.031,52.5 0,72.529 l 73.574,73.57 c 20.027,20.03 20.027,52.5 0,72.53 l -1.183,1.18 c -20.028,20.03 -52.504,20.03 -72.532,0 L -531.996,102.789 c -20.027,-20.0273 -20.027,-52.4999 0,-72.5273 l 1.176,-1.1797 c 20.031,-20.03122 52.507,-20.03122 72.535,0 l 124.074,124.066 c 20.027,20.032 52.504,20.032 72.531,0 l 1.184,-1.179 c 20.027,-20.028 20.027,-52.5002 0,-72.5276 l -78.41,-78.41015 c -20.028,-20.03125 -20.028,-52.51175 0,-72.53905 l 1.183,-1.1719 c 20.028,-20.0312 52.504,-20.0312 72.535,0 20.028,20.0313 52.504,20.0313 72.532,-0.0117 l 1.183,-1.168 c 20.028,-20.0312 20.028,-52.5116 0,-72.5386 l -45.668,-45.661 c -20.031,-20.031 -20.031,-52.5 0,-72.543 l 1.18,-1.168 c 20.031,-20.031 52.504,-20.031 72.535,0 l 124.0705,124.071 c 20.0313,20.031 52.5078,20.031 72.5352,0 l 1.1758,-1.18 c 20.0351,-20.031 20.0351,-52.512 0,-72.539 l -52.6758,-52.684 c -20.0274,-20.027 -20.0274,-52.5 0,-72.527 l 1.1836,-1.18 c 20.02733,-20.031 52.5039,-20.031 72.5351,0 L 917.566,520.352 c 20.028,20.039 20.028,52.507 0,72.539 l -1.183,1.179 c -20.028,20.032 -52.504,20.032 -72.535,0"
         style="fill:#f0349e;fill-opacity:1;fill-rule:nonzero;stroke:none"
         id="path32" /><path
         d="m 7750.57,4495.86 -93.31,-93.31 c -35.48,-35.47 -93,-35.47 -128.47,0 l -2.09,2.09 c -35.48,35.48 -35.48,93 0,128.48 l 291.99,291.99 c 35.48,35.48 35.48,93 0,128.48 l -2.09,2.09 c -35.48,35.48 -93,35.48 -128.48,0 l -44.11,-44.11 c -35.47,-35.47 -93,-35.47 -128.48,0 l -2.09,2.09 c -35.47,35.48 -35.47,93.01 0,128.48 l 112.21,112.21 c 35.48,35.48 35.48,93.01 0,128.48 l -2.09,2.09 c -35.48,35.48 -93,35.48 -128.48,0 L 7296.67,5086.5 c -35.48,-35.48 -93,-35.48 -128.48,0 l -2.09,2.09 c -35.48,35.47 -35.48,93 0,128.47 l 130.31,130.32 c 35.48,35.48 35.48,93 0,128.48 l -2.09,2.09 c -35.48,35.48 -93,35.48 -128.47,0 L 5313.57,3625.66 c -35.48,-35.48 -35.48,-93 0,-128.48 l 2.09,-2.09 c 35.48,-35.48 93,-35.48 128.48,0 l 219.76,219.77 c 35.48,35.47 93,35.47 128.48,0 l 2.09,-2.09 c 35.48,-35.48 35.48,-93 0,-128.48 l -138.88,-138.88 c -35.48,-35.48 -35.48,-93 0,-128.48 l 2.09,-2.09 c 35.48,-35.47 93,-35.47 128.48,0 35.48,35.48 93,35.48 128.48,0.01 l 2.08,-2.09 c 35.48,-35.48 35.48,-93.01 0,-128.49 l -80.87,-80.88 c -35.48,-35.48 -35.48,-93 0,-128.48 l 2.09,-2.09 c 35.47,-35.48 92.99,-35.48 128.47,0 l 219.77,219.76 c 35.48,35.49 93,35.49 128.47,0.01 l 2.09,-2.09 c 35.48,-35.48 35.48,-93 0,-128.48 l -93.31,-93.3 c -35.47,-35.48 -35.47,-93.01 0,-128.48 l 2.09,-2.09 c 35.48,-35.48 93.01,-35.48 128.49,0 l 1527.13,1527.14 c 35.48,35.48 35.48,93 0,128.48 l -2.09,2.09 c -35.48,35.48 -93.01,35.48 -128.48,0"
         style="fill:#3d2057;fill-opacity:1;fill-rule:nonzero;stroke:none"
         id="path34" /><path
         d="m 7631.99,4882.45 -45.52,-45.5 c -21.11,-21.12 -55.34,-21.12 -76.45,0 h -0.01 c -21.12,21.11 -21.12,55.34 0,76.46 l 160.2,160.2 c 21.11,21.11 21.11,55.34 0,76.46 -21.11,21.11 -55.34,21.11 -76.45,0 L 6613.19,4169.5 c -21.11,-21.12 -21.11,-55.35 0,-76.46 21.11,-21.12 55.34,-21.12 76.45,0 l 85.86,85.85 c 21.12,21.12 55.35,21.12 76.46,0 21.11,-21.12 21.11,-55.34 0,-76.46 l -200.54,-200.54 c -21.11,-21.12 -21.11,-55.35 0,-76.46 21.12,-21.12 55.34,-21.12 76.46,0 l 980.56,980.56 c 21.12,21.12 21.12,55.35 0,76.46 -21.11,21.12 -55.34,21.12 -76.45,0"
         style="fill:#f26fbe;fill-opacity:1;fill-rule:nonzero;stroke:none"
         id="path36" /><path
         d="m 2939.24,308.441 -24.15,-24.152 c -11.2,-11.199 -29.37,-11.199 -40.57,0 -11.21,11.203 -11.21,29.383 0,40.582 l 85.01,85.02 c 11.21,11.199 11.21,29.359 0,40.578 -11.2,11.203 -29.37,11.203 -40.57,0 L 2398.59,-69.918 c -11.21,-11.2031 -11.21,-29.3633 0,-40.57 11.2,-11.203 29.37,-11.203 40.57,0 l 45.56,45.57 c 11.21,11.1992 29.37,11.1992 40.58,0 11.21,-11.2226 11.21,-29.3828 0,-40.582 l -106.43,-106.43 c -11.2,-11.211 -11.2,-29.371 0,-40.57 11.21,-11.211 29.37,-11.211 40.58,0 l 520.37,520.371 c 11.21,11.199 11.21,29.371 0,40.57 -11.2,11.207 -29.37,11.207 -40.58,0"
         style="fill:#f26fbe;fill-opacity:1;fill-rule:nonzero;stroke:none"
         id="path38" /><path
         d="m 2140.14,4701.71 24.15,24.15 c 11.2,11.21 29.37,11.21 40.58,0 11.2,-11.2 11.2,-29.37 0,-40.57 l -85.02,-85.02 c -11.2,-11.21 -11.2,-29.38 0,-40.57 11.21,-11.21 29.38,-11.21 40.58,0 l 520.37,520.37 c 11.21,11.2 11.2,29.37 0,40.57 -11.2,11.21 -29.37,11.21 -40.57,0 l -45.57,-45.56 c -11.2,-11.2 -29.37,-11.2 -40.57,0 -11.21,11.21 -11.21,29.38 0,40.58 l 106.42,106.43 c 11.21,11.2 11.21,29.37 0,40.57 -11.2,11.21 -29.37,11.21 -40.57,0 l -520.38,-520.37 c -11.2,-11.21 -11.2,-29.37 0,-40.58 11.21,-11.21 29.38,-11.21 40.58,0"
         style="fill:#ace3eb;fill-opacity:1;fill-rule:nonzero;stroke:none"
         id="path40" /><path
         d="m 7032.2,3078.7 v 0 c -17.24,17.25 -17.24,45.22 0,62.47 l 1113.37,1113.61 c 17.25,17.26 45.22,17.26 62.47,0.01 17.25,-17.25 17.25,-45.22 0,-62.47 L 7094.67,3078.71 c -17.24,-17.26 -45.21,-17.26 -62.47,-0.01"
         style="fill:#ace3eb;fill-opacity:1;fill-rule:nonzero;stroke:none"
         id="path42" /><path
         d="m 4609.97,3563.28 v 0 c -17.25,17.25 -17.25,45.22 0,62.47 l 690.38,690.63 c 17.24,17.25 45.21,17.26 62.47,0 17.24,-17.25 17.24,-45.22 0,-62.47 l -690.38,-690.62 c -17.25,-17.25 -45.22,-17.26 -62.47,-0.01"
         style="fill:#f7a60e;fill-opacity:1;fill-rule:nonzero;stroke:none"
         id="path44" /><path
         d="m 1718.93,1736.03 v 0 c -17.25,17.25 -17.25,45.22 -0.01,62.47 l 479.83,480.07 c 17.25,17.26 45.22,17.26 62.47,0.01 17.25,-17.25 17.25,-45.22 0,-62.47 L 1781.4,1736.04 c -17.25,-17.25 -45.22,-17.26 -62.47,-0.01"
         style="fill:#3d2057;fill-opacity:1;fill-rule:nonzero;stroke:none"
         id="path46" /><path
         d="m -804.594,1487.91 v 0 c -19.652,19.66 -19.652,51.52 0,71.17 L 463.898,2827.66 c 19.653,19.66 51.52,19.66 71.172,0.01 v -0.01 c 19.653,-19.65 19.657,-51.51 0.004,-71.16 L -733.418,1487.92 c -19.652,-19.66 -51.523,-19.66 -71.176,-0.01"
         style="fill:#f0349e;fill-opacity:1;fill-rule:nonzero;stroke:none"
         id="path48" /><path
         d="m -683.816,2895.56 v 0 c -2.711,2.71 -2.711,7.1 0,9.81 L 768.719,4358.09 c 2.707,2.71 7.101,2.71 9.812,0 2.711,-2.71 2.711,-7.1 0,-9.81 L -674.008,2895.56 c -2.711,-2.71 -7.097,-2.71 -9.808,0"
         style="fill:#ace3eb;fill-opacity:1;fill-rule:nonzero;stroke:none"
         id="path50" /><path
         d="m 58.1758,-658.121 v 0 c -2.6133,2.609 -2.6133,6.851 0,9.453 L 1457.79,751.039 c 2.62,2.609 6.85,2.609 9.46,0 2.61,-2.617 2.61,-6.84 0,-9.457 L 67.6289,-658.121 c -2.6094,-2.617 -6.8476,-2.617 -9.4531,0"
         style="fill:#ace3eb;fill-opacity:1;fill-rule:nonzero;stroke:none"
         id="path52" /><path
         d="m 764.668,-704.578 v 0 c -2.605,2.609 -2.605,6.84 0,9.457 L 2164.29,704.582 c 2.62,2.609 6.85,2.609 9.46,0 2.61,-2.613 2.61,-6.852 0,-9.461 L 774.129,-704.578 c -2.613,-2.613 -6.848,-2.613 -9.461,0"
         style="fill:#f26fbe;fill-opacity:1;fill-rule:nonzero;stroke:none"
         id="path54" /><path
         d="m 679.035,-704.578 v 0 c -2.609,2.609 -2.609,6.84 0,9.457 L 2078.66,704.582 c 2.61,2.609 6.84,2.609 9.46,0 2.61,-2.613 2.61,-6.852 0,-9.461 L 688.492,-704.578 c -2.613,-2.613 -6.844,-2.613 -9.457,0"
         style="fill:#f26fbe;fill-opacity:1;fill-rule:nonzero;stroke:none"
         id="path56" /><path
         d="m 593.398,-704.578 v 0 c -2.605,2.609 -2.605,6.84 0,9.457 L 1993.02,704.582 c 2.62,2.609 6.85,2.609 9.46,0 2.61,-2.613 2.61,-6.852 0,-9.461 L 602.859,-704.578 c -2.613,-2.613 -6.847,-2.613 -9.461,0"
         style="fill:#f26fbe;fill-opacity:1;fill-rule:nonzero;stroke:none"
         id="path58" /><path
         d="m 6658.34,307.121 v 0 c -2.61,2.609 -2.61,6.84 0,9.461 L 8057.97,1716.28 c 2.6,2.61 6.84,2.61 9.45,0 2.62,-2.61 2.62,-6.85 0,-9.46 L 6667.8,307.121 c -2.62,-2.609 -6.85,-2.609 -9.46,0"
         style="fill:#f7a60e;fill-opacity:1;fill-rule:nonzero;stroke:none"
         id="path60" /><path
         d="m 5045.97,4732.29 v 0 c -2.61,2.61 -2.61,6.84 0,9.46 l 1399.62,1399.7 c 2.61,2.61 6.85,2.61 9.46,0 2.61,-2.61 2.61,-6.84 0,-9.46 L 5055.43,4732.29 c -2.61,-2.61 -6.85,-2.61 -9.46,0"
         style="fill:#f0349e;fill-opacity:1;fill-rule:nonzero;stroke:none"
         id="path62" /><path
         d="m 4895.08,4577.16 -27.61,-27.62 -27.63,27.62 -14.07,-14.07 27.62,-27.63 -27.62,-27.62 14.07,-14.07 27.63,27.62 27.61,-27.62 14.09,14.07 -27.63,27.62 27.63,27.63 -14.09,14.07"
         style="fill:#f0349e;fill-opacity:1;fill-rule:nonzero;stroke:none"
         id="path64" /><g
         id="g66"><g
           id="g68"
           clip-path="url(#clipPath72)"><path
             d="m 4669.69,4337.7 h 83.3984 v 83.3984 H 4669.69 Z"
             style="fill:#c72b90;fill-opacity:1;fill-rule:nonzero;stroke:none"
             id="path74" /></g></g><path
         d="m 4582.95,4181.63 -27.62,27.62 -27.62,-27.62 -14.08,14.08 27.63,27.62 -27.63,27.62 14.08,14.08 27.62,-27.62 27.62,27.62 14.08,-14.08 -27.62,-27.62 27.62,-27.62 -14.08,-14.08"
         style="fill:#80237b;fill-opacity:1;fill-rule:nonzero;stroke:none"
         id="path76" /><path
         d="m 4436.41,4035.09 -27.62,27.63 -27.62,-27.63 -14.08,14.08 27.62,27.62 -27.62,27.63 14.08,14.08 27.62,-27.63 27.62,27.63 14.08,-14.08 -27.62,-27.63 27.62,-27.62 -14.08,-14.08"
         style="fill:#5b226f;fill-opacity:1;fill-rule:nonzero;stroke:none"
         id="path78" /><path
         d="m 5637.44,2790.45 -27.63,-27.62 -27.62,27.62 -14.08,-14.08 27.63,-27.62 -27.63,-27.62 14.08,-14.08 27.62,27.62 27.63,-27.62 14.07,14.08 -27.62,27.62 27.62,27.62 -14.07,14.08"
         style="fill:#ace3eb;fill-opacity:1;fill-rule:nonzero;stroke:none"
         id="path80" /><path
         d="m 5481.37,2550.99 -27.62,27.62 -27.62,-27.62 -14.08,14.08 27.62,27.62 -27.62,27.62 14.08,14.08 27.62,-27.63 27.62,27.63 14.07,-14.08 -27.61,-27.62 27.61,-27.62 -14.07,-14.08"
         style="fill:#8baad0;fill-opacity:1;fill-rule:nonzero;stroke:none"
         id="path82" /><path
         d="m 5325.3,2394.92 -27.62,27.63 -27.62,-27.63 -14.08,14.08 27.63,27.62 -27.63,27.62 14.08,14.08 27.62,-27.62 27.63,27.62 14.07,-14.08 -27.62,-27.62 27.62,-27.62 -14.08,-14.08"
         style="fill:#624e99;fill-opacity:1;fill-rule:nonzero;stroke:none"
         id="path84" /><path
         d="m 5178.77,2248.38 -27.63,27.62 -27.62,-27.62 -14.08,14.08 27.63,27.62 -27.63,27.62 14.08,14.08 27.62,-27.62 27.63,27.62 14.07,-14.08 -27.62,-27.62 27.62,-27.62 -14.07,-14.08"
         style="fill:#522b7b;fill-opacity:1;fill-rule:nonzero;stroke:none"
         id="path86" /><path
         d="m 1797.31,1066.98 27.62,27.63 27.62,-27.63 14.08,14.07 -27.62,27.63 27.62,27.63 -14.08,14.08 -27.62,-27.63 -27.62,27.63 -14.08,-14.08 27.62,-27.63 -27.62,-27.63 14.08,-14.07"
         style="fill:#ace3eb;fill-opacity:1;fill-rule:nonzero;stroke:none"
         id="path88" /><path
         d="m 2008.61,1223.05 -27.62,27.63 -27.62,-27.63 -14.08,14.08 27.62,27.63 -27.62,27.63 14.08,14.07 27.62,-27.62 27.62,27.62 14.08,-14.08 -27.63,-27.62 27.63,-27.63 -14.08,-14.08"
         style="fill:#8baad0;fill-opacity:1;fill-rule:nonzero;stroke:none"
         id="path90" /><path
         d="m 2164.67,1379.14 -27.62,27.63 -27.62,-27.63 -14.08,14.08 27.62,27.62 -27.62,27.62 14.07,14.09 27.63,-27.63 27.62,27.63 14.08,-14.09 -27.62,-27.62 27.62,-27.62 -14.08,-14.08"
         style="fill:#684f9e;fill-opacity:1;fill-rule:nonzero;stroke:none"
         id="path92" /><path
         d="m 2311.21,1525.69 -27.63,27.63 -27.62,-27.63 -14.07,14.08 27.62,27.62 -27.62,27.63 14.07,14.08 27.62,-27.63 27.62,27.63 14.08,-14.08 -27.62,-27.63 27.62,-27.62 -14.07,-14.08"
         style="fill:#582d81;fill-opacity:1;fill-rule:nonzero;stroke:none"
         id="path94" /><path
         d="m 5714.08,200.121 27.63,27.629 27.61,-27.629 14.08,14.09 -27.62,27.609 27.62,27.629 -14.08,14.082 -27.61,-27.621 -27.63,27.621 -14.07,-14.082 27.61,-27.629 -27.61,-27.609 14.07,-14.09"
         style="fill:#d3a5d8;fill-opacity:1;fill-rule:nonzero;stroke:none"
         id="path96" /><path
         d="m 5925.39,356.199 -27.63,27.633 -27.62,-27.633 -14.08,14.082 27.63,27.629 -27.63,27.621 14.08,14.078 27.62,-27.629 27.63,27.629 14.07,-14.089 -27.62,-27.61 27.62,-27.629 -14.07,-14.082"
         style="fill:#b174c1;fill-opacity:1;fill-rule:nonzero;stroke:none"
         id="path98" /><path
         d="m 6081.45,512.281 -27.63,27.629 -27.61,-27.629 -14.08,14.09 27.61,27.609 -27.61,27.629 14.07,14.082 27.62,-27.632 27.62,27.632 14.08,-14.082 -27.62,-27.629 27.62,-27.609 -14.07,-14.09"
         style="fill:#7b3a9e;fill-opacity:1;fill-rule:nonzero;stroke:none"
         id="path100" /><path
         d="m 6227.98,658.84 -27.62,27.621 -27.62,-27.621 -14.08,14.082 27.63,27.609 -27.63,27.629 14.07,14.082 27.63,-27.621 27.61,27.621 14.09,-14.082 -27.62,-27.629 27.62,-27.609 -14.08,-14.082"
         style="fill:#5f2781;fill-opacity:1;fill-rule:nonzero;stroke:none"
         id="path102" /><path
         d="m 2666.71,1339.24 c -4.92,-4.93 -4.92,-12.91 0,-17.83 4.92,-4.92 12.9,-4.92 17.82,0 4.92,4.92 4.92,12.9 0,17.83 -4.92,4.92 -12.9,4.92 -17.82,0"
         style="fill:#d3a5d8;fill-opacity:1;fill-rule:nonzero;stroke:none"
         id="path104" /><path
         d="m 2731.83,1404.35 c -4.92,-4.92 -4.92,-12.9 0,-17.82 4.92,-4.92 12.9,-4.92 17.82,0 4.93,4.92 4.93,12.9 0,17.82 -4.92,4.92 -12.9,4.92 -17.82,0"
         style="fill:#d3a5d8;fill-opacity:1;fill-rule:nonzero;stroke:none"
         id="path106" /><path
         d="m 2796.95,1469.48 c -4.92,-4.92 -4.92,-12.9 0,-17.82 4.93,-4.92 12.9,-4.92 17.83,0 4.92,4.92 4.92,12.9 0,17.82 -4.93,4.92 -12.9,4.92 -17.83,0"
         style="fill:#d3a5d8;fill-opacity:1;fill-rule:nonzero;stroke:none"
         id="path108" /><path
         d="m 2862.08,1534.6 c -4.93,-4.93 -4.93,-12.9 0,-17.83 4.92,-4.92 12.9,-4.92 17.82,0 4.92,4.93 4.92,12.91 0,17.83 -4.92,4.92 -12.9,4.92 -17.82,0"
         style="fill:#d3a5d8;fill-opacity:1;fill-rule:nonzero;stroke:none"
         id="path110" /><path
         d="m 2927.2,1599.72 c -4.92,-4.92 -4.92,-12.9 0,-17.82 4.92,-4.92 12.9,-4.92 17.82,0 4.92,4.92 4.92,12.9 0,17.82 -4.92,4.93 -12.9,4.93 -17.82,0"
         style="fill:#d3a5d8;fill-opacity:1;fill-rule:nonzero;stroke:none"
         id="path112" /><path
         d="m 2992.32,1664.85 c -4.92,-4.92 -4.92,-12.91 0,-17.83 4.92,-4.92 12.9,-4.92 17.82,0 4.92,4.92 4.92,12.91 0,17.83 -4.92,4.91 -12.9,4.91 -17.82,0"
         style="fill:#d3a5d8;fill-opacity:1;fill-rule:nonzero;stroke:none"
         id="path114" /><path
         d="m 3057.44,1729.97 c -4.92,-4.92 -4.92,-12.9 0,-17.82 4.92,-4.93 12.9,-4.93 17.82,0 4.93,4.92 4.93,12.9 0,17.82 -4.92,4.92 -12.9,4.92 -17.82,0"
         style="fill:#d3a5d8;fill-opacity:1;fill-rule:nonzero;stroke:none"
         id="path116" /><path
         d="m 1056.96,3623.13 c -4.92,-4.92 -4.92,-12.9 0,-17.82 4.93,-4.92 12.9,-4.92 17.83,0 4.92,4.92 4.92,12.9 0,17.82 -4.93,4.92 -12.9,4.92 -17.83,0"
         style="fill:#d3a5d8;fill-opacity:1;fill-rule:nonzero;stroke:none"
         id="path118" /><path
         d="m 1122.09,3688.25 c -4.93,-4.92 -4.93,-12.9 0,-17.82 4.92,-4.92 12.9,-4.92 17.82,0 4.92,4.92 4.92,12.9 0,17.82 -4.92,4.93 -12.9,4.93 -17.82,0"
         style="fill:#d3a5d8;fill-opacity:1;fill-rule:nonzero;stroke:none"
         id="path120" /><path
         d="m 1187.21,3753.38 c -4.92,-4.93 -4.92,-12.9 0,-17.83 4.92,-4.92 12.9,-4.92 17.82,0.01 4.92,4.92 4.92,12.9 0,17.82 -4.92,4.92 -12.9,4.92 -17.82,0"
         style="fill:#d3a5d8;fill-opacity:1;fill-rule:nonzero;stroke:none"
         id="path122" /><path
         d="m 1252.33,3818.5 c -4.92,-4.92 -4.92,-12.9 0,-17.82 4.92,-4.93 12.9,-4.93 17.82,0 4.92,4.92 4.92,12.9 0,17.82 -4.92,4.92 -12.9,4.92 -17.82,0"
         style="fill:#d3a5d8;fill-opacity:1;fill-rule:nonzero;stroke:none"
         id="path124" /><path
         d="m 1317.45,3883.62 c -4.92,-4.92 -4.92,-12.9 0,-17.82 4.92,-4.92 12.9,-4.92 17.82,0 4.93,4.92 4.93,12.9 0,17.82 -4.92,4.93 -12.9,4.92 -17.82,0"
         style="fill:#d3a5d8;fill-opacity:1;fill-rule:nonzero;stroke:none"
         id="path126" /><path
         d="m 1382.57,3948.75 c -4.92,-4.93 -4.92,-12.91 0,-17.83 4.93,-4.92 12.91,-4.92 17.83,0 4.92,4.92 4.92,12.9 0,17.83 -4.92,4.92 -12.9,4.92 -17.83,0"
         style="fill:#d3a5d8;fill-opacity:1;fill-rule:nonzero;stroke:none"
         id="path128" /><path
         d="m 1447.7,4013.87 c -4.93,-4.92 -4.93,-12.91 0,-17.82 4.92,-4.93 12.9,-4.93 17.82,0 4.92,4.92 4.92,12.9 0,17.82 -4.92,4.92 -12.9,4.92 -17.82,0"
         style="fill:#d3a5d8;fill-opacity:1;fill-rule:nonzero;stroke:none"
         id="path130" /><path
         d="m 5510.72,4464.23 c -4.92,-4.92 -4.92,-12.9 0,-17.82 4.92,-4.93 12.9,-4.93 17.82,0 4.92,4.92 4.92,12.9 0,17.82 -4.92,4.92 -12.9,4.92 -17.82,0"
         style="fill:#f7a60e;fill-opacity:1;fill-rule:nonzero;stroke:none"
         id="path132" /><path
         d="m 5575.85,4529.36 c -4.93,-4.93 -4.93,-12.91 0,-17.83 4.92,-4.92 12.9,-4.92 17.82,0 4.92,4.92 4.92,12.9 0,17.83 -4.92,4.91 -12.9,4.91 -17.82,0"
         style="fill:#f7a60e;fill-opacity:1;fill-rule:nonzero;stroke:none"
         id="path134" /><path
         d="m 5640.96,4594.48 c -4.92,-4.92 -4.92,-12.91 0,-17.83 4.93,-4.92 12.9,-4.92 17.83,0 4.92,4.92 4.92,12.91 0,17.83 -4.93,4.92 -12.9,4.91 -17.83,0"
         style="fill:#f7a60e;fill-opacity:1;fill-rule:nonzero;stroke:none"
         id="path136" /><path
         d="m 5706.09,4659.6 c -4.92,-4.92 -4.92,-12.9 0,-17.83 4.92,-4.91 12.9,-4.91 17.82,0 4.92,4.93 4.92,12.91 0,17.83 -4.92,4.92 -12.9,4.92 -17.82,0"
         style="fill:#f7a60e;fill-opacity:1;fill-rule:nonzero;stroke:none"
         id="path138" /><path
         d="m 5771.21,4724.72 c -4.92,-4.92 -4.92,-12.9 0,-17.82 4.92,-4.92 12.9,-4.92 17.82,0 4.92,4.92 4.92,12.9 0,17.82 -4.92,4.92 -12.9,4.92 -17.82,0"
         style="fill:#f7a60e;fill-opacity:1;fill-rule:nonzero;stroke:none"
         id="path140" /><path
         d="m 5836.33,4789.85 c -4.92,-4.92 -4.92,-12.9 0,-17.83 4.93,-4.92 12.9,-4.92 17.83,0 4.92,4.93 4.92,12.91 0,17.83 -4.93,4.92 -12.9,4.92 -17.83,0"
         style="fill:#f7a60e;fill-opacity:1;fill-rule:nonzero;stroke:none"
         id="path142" /><path
         d="m 5901.45,4854.97 c -4.92,-4.92 -4.92,-12.9 0,-17.83 4.92,-4.92 12.9,-4.92 17.82,0 4.93,4.93 4.93,12.91 0,17.83 -4.92,4.92 -12.9,4.92 -17.82,0"
         style="fill:#f7a60e;fill-opacity:1;fill-rule:nonzero;stroke:none"
         id="path144" /><path
         d="m 6121.26,4039.08 c -4.93,-4.92 -4.93,-12.9 0,-17.82 4.92,-4.92 12.9,-4.92 17.82,0 4.92,4.92 4.92,12.9 0,17.82 -4.92,4.92 -12.9,4.92 -17.82,0"
         style="fill:#feeff2;fill-opacity:1;fill-rule:nonzero;stroke:none"
         id="path146" /><path
         d="m 6186.38,4104.2 c -4.92,-4.92 -4.92,-12.9 0,-17.82 4.92,-4.92 12.9,-4.92 17.83,0 4.92,4.92 4.92,12.9 0,17.82 -4.93,4.93 -12.91,4.93 -17.83,0"
         style="fill:#feeff2;fill-opacity:1;fill-rule:nonzero;stroke:none"
         id="path148" /><path
         d="m 6251.5,4169.32 c -4.92,-4.92 -4.92,-12.9 0,-17.82 4.92,-4.92 12.9,-4.92 17.82,0 4.92,4.92 4.92,12.9 0,17.82 -4.92,4.93 -12.9,4.93 -17.82,0"
         style="fill:#feeff2;fill-opacity:1;fill-rule:nonzero;stroke:none"
         id="path150" /><path
         d="m 6316.63,4234.45 c -4.92,-4.93 -4.92,-12.9 0,-17.82 4.92,-4.93 12.9,-4.93 17.82,0 4.92,4.92 4.92,12.9 0,17.82 -4.92,4.92 -12.9,4.92 -17.82,0"
         style="fill:#feeff2;fill-opacity:1;fill-rule:nonzero;stroke:none"
         id="path152" /><path
         d="m 6381.74,4299.57 c -4.92,-4.93 -4.92,-12.9 0,-17.82 4.93,-4.93 12.9,-4.93 17.83,0 4.92,4.92 4.92,12.9 0,17.82 -4.93,4.92 -12.9,4.92 -17.83,0"
         style="fill:#feeff2;fill-opacity:1;fill-rule:nonzero;stroke:none"
         id="path154" /><path
         d="m 6446.87,4364.69 c -4.92,-4.92 -4.92,-12.9 0,-17.82 4.92,-4.92 12.9,-4.92 17.82,0 4.93,4.92 4.93,12.9 0,17.82 -4.92,4.92 -12.9,4.92 -17.82,0"
         style="fill:#feeff2;fill-opacity:1;fill-rule:nonzero;stroke:none"
         id="path156" /><path
         d="m 6511.99,4429.82 c -4.92,-4.93 -4.92,-12.91 0,-17.83 4.92,-4.92 12.9,-4.92 17.82,0 4.92,4.92 4.92,12.9 0,17.83 -4.92,4.92 -12.9,4.92 -17.82,0"
         style="fill:#feeff2;fill-opacity:1;fill-rule:nonzero;stroke:none"
         id="path158" /><path
         d="m 4183.1,42.7695 c -4.92,-4.9179 -4.92,-12.8984 0,-17.8203 4.92,-4.9179 12.9,-4.9179 17.82,0 4.93,4.9219 4.93,12.9024 0,17.8203 -4.92,4.9219 -12.9,4.9219 -17.82,0"
         style="fill:#feeff2;fill-opacity:1;fill-rule:nonzero;stroke:none"
         id="path160" /><path
         d="m 4248.23,107.891 c -4.92,-4.922 -4.92,-12.9027 0,-17.8207 4.92,-4.9297 12.9,-4.9297 17.82,0 4.92,4.918 4.92,12.8987 0,17.8207 -4.92,4.918 -12.9,4.918 -17.82,0"
         style="fill:#feeff2;fill-opacity:1;fill-rule:nonzero;stroke:none"
         id="path162" /><path
         d="m 4313.35,173.012 c -4.93,-4.922 -4.93,-12.903 0,-17.821 4.92,-4.921 12.9,-4.921 17.82,0 4.92,4.918 4.92,12.899 0,17.821 -4.92,4.929 -12.9,4.929 -17.82,0"
         style="fill:#feeff2;fill-opacity:1;fill-rule:nonzero;stroke:none"
         id="path164" /><path
         d="m 4378.47,238.129 c -4.92,-4.918 -4.92,-12.899 0,-17.82 4.92,-4.918 12.9,-4.918 17.83,0 4.92,4.921 4.92,12.902 0,17.82 -4.93,4.922 -12.91,4.922 -17.83,0"
         style="fill:#feeff2;fill-opacity:1;fill-rule:nonzero;stroke:none"
         id="path166" /><path
         d="m 4443.59,303.262 c -4.92,-4.922 -4.92,-12.903 0,-17.821 4.92,-4.929 12.9,-4.929 17.82,0 4.92,4.918 4.92,12.899 0,17.821 -4.92,4.918 -12.9,4.918 -17.82,0"
         style="fill:#feeff2;fill-opacity:1;fill-rule:nonzero;stroke:none"
         id="path168" /><path
         d="m 9120.12,4095.75 -3.53,-3.54 c 19.57,-19.57 29.34,-45.18 29.35,-70.84 -0.01,-25.66 -9.78,-51.27 -29.35,-70.85 L 6696.94,1530.87 c -19.58,-19.58 -45.19,-29.35 -70.85,-29.35 -25.66,0 -51.27,9.77 -70.84,29.35 -19.58,19.57 -29.34,45.18 -29.35,70.84 0.01,25.65 9.78,51.27 29.35,70.85 L 8974.9,4092.21 c 19.58,19.58 45.19,29.34 70.85,29.35 25.65,-0.01 51.26,-9.77 70.84,-29.35 l 3.53,3.54 3.54,3.54 c -21.5,21.5 -49.73,32.27 -77.91,32.27 -28.19,0 -56.42,-10.77 -77.92,-32.27 L 6548.18,1679.63 c -21.51,-21.51 -32.28,-49.74 -32.28,-77.92 0,-28.19 10.77,-56.41 32.28,-77.91 21.5,-21.51 49.73,-32.29 77.91,-32.28 28.18,-0.01 56.41,10.77 77.92,32.28 l 2419.65,2419.65 c 21.51,21.51 32.28,49.74 32.28,77.92 0,28.18 -10.77,56.41 -32.28,77.92 l -3.54,-3.54"
         style="fill:#f7a60e;fill-opacity:1;fill-rule:nonzero;stroke:none"
         id="path170" /><path
         d="m 686.945,3583.41 -3.535,-3.53 c 19.57,-19.58 29.34,-45.19 29.344,-70.85 -0.004,-25.66 -9.774,-51.27 -29.344,-70.84 L -1736.24,1018.53 c -19.59,-19.581 -45.22,-29.339 -70.9,-29.35 -25.64,0.011 -51.23,9.781 -70.79,29.34 l -3.54,-3.53 h 5 v 0.01 2.07 l -1.46,1.46 c -19.58,19.58 -29.35,45.19 -29.35,70.84 0,25.66 9.77,51.27 29.35,70.85 L 541.715,3579.87 c 19.601,19.6 45.254,29.35 70.953,29.35 25.617,0 51.187,-9.79 70.742,-29.34 l 3.535,3.53 3.535,3.54 c -21.472,21.48 -49.66,32.28 -77.812,32.27 -28.215,0.01 -56.492,-10.74 -78.023,-32.27 L -1885,1167.29 c -21.51,-21.5 -32.29,-49.73 -32.28,-77.92 -0.01,-28.18 10.77,-56.41 32.28,-77.91 l 3.53,3.54 h -5 v -0.01 -2.07 l 1.47,-1.47 c 21.48,-21.489 49.69,-32.27 77.86,-32.27 28.2,0 56.45,10.761 77.97,32.28 L 690.48,3431.11 c 21.508,21.51 32.282,49.74 32.274,77.92 0.008,28.19 -10.766,56.42 -32.274,77.92 l -3.535,-3.54"
         style="fill:#f26fbe;fill-opacity:1;fill-rule:nonzero;stroke:none"
         id="path172" /><path
         d="m 3780.44,826.992 c 0.15,-3.344 0.44,-6.683 0.78,-10.012 l 193.86,193.93 c -3.33,0.36 -6.66,0.63 -10.01,0.79 L 3780.44,826.992"
         style="fill:#ace3eb;fill-opacity:1;fill-rule:nonzero;stroke:none"
         id="path174" /><path
         d="m 4026.64,997.469 c -2.54,1.09 -5.1,2.133 -7.69,3.091 L 3791.58,773.109 c 0.97,-2.589 2.01,-5.14 3.1,-7.687 l 231.96,232.047"
         style="fill:#ace3eb;fill-opacity:1;fill-rule:nonzero;stroke:none"
         id="path176" /><path
         d="m 4067.22,973.031 c -2,1.617 -4.02,3.199 -6.08,4.707 L 3814.41,730.91 c 1.51,-2.051 3.1,-4.07 4.72,-6.07 l 248.09,248.191"
         style="fill:#ace3eb;fill-opacity:1;fill-rule:nonzero;stroke:none"
         id="path178" /><path
         d="m 4048.1,986.422 c -2.25,1.367 -4.55,2.668 -6.85,3.93 L 3801.79,750.809 c 1.26,-2.309 2.57,-4.59 3.94,-6.848 l 242.37,242.461"
         style="fill:#ace3eb;fill-opacity:1;fill-rule:nonzero;stroke:none"
         id="path180" /><path
         d="m 4118.02,763.73 c 2.54,5.711 4.76,11.54 6.65,17.442 L 4010.97,667.43 c 5.9,1.89 11.72,4.109 17.43,6.652 l 89.62,89.648"
         style="fill:#ace3eb;fill-opacity:1;fill-rule:nonzero;stroke:none"
         id="path182" /><path
         d="m 3970.48,659.441 c 4.06,0.309 8.1,0.731 12.11,1.329 l 148.73,148.781 c 0.59,4.019 1.01,8.058 1.32,12.109 L 3970.48,659.441"
         style="fill:#ace3eb;fill-opacity:1;fill-rule:nonzero;stroke:none"
         id="path184" /><path
         d="m 4002.51,1005.84 c -2.88,0.77 -5.79,1.47 -8.7,2.1 l -209.6,-209.69 c 0.62,-2.91 1.32,-5.809 2.09,-8.691 l 216.21,216.281"
         style="fill:#ace3eb;fill-opacity:1;fill-rule:nonzero;stroke:none"
         id="path186" /><path
         d="m 3834.7,707.91 249.46,249.551 c -0.88,0.918 -1.73,1.848 -2.63,2.758 -0.91,0.902 -1.85,1.75 -2.76,2.633 L 3829.3,713.301 c 0.89,-0.922 1.73,-1.86 2.64,-2.77 0.9,-0.89 1.85,-1.742 2.76,-2.621"
         style="fill:#ace3eb;fill-opacity:1;fill-rule:nonzero;stroke:none"
         id="path188" /><path
         d="m 3942.97,1011.32 c -4.05,-0.33 -8.08,-0.74 -12.1,-1.33 L 3782.14,861.211 c -0.59,-4.031 -1.01,-8.07 -1.32,-12.109 l 162.15,162.218"
         style="fill:#ace3eb;fill-opacity:1;fill-rule:nonzero;stroke:none"
         id="path190" /><path
         d="m 4133.02,843.77 c -0.15,3.339 -0.43,6.679 -0.78,10.011 L 3938.38,659.84 c 3.33,-0.348 6.67,-0.621 10.01,-0.781 l 184.63,184.711"
         style="fill:#ace3eb;fill-opacity:1;fill-rule:nonzero;stroke:none"
         id="path192" /><path
         d="m 3795.44,907.031 c -2.53,-5.722 -4.75,-11.539 -6.65,-17.441 l 113.7,113.74 c -5.9,-1.9 -11.72,-4.111 -17.44,-6.65 l -89.61,-89.649"
         style="fill:#ace3eb;fill-opacity:1;fill-rule:nonzero;stroke:none"
         id="path194" /><path
         d="m 4111.67,919.949 c -1.26,2.301 -2.57,4.59 -3.94,6.84 L 3865.36,684.332 c 2.26,-1.363 4.55,-2.66 6.85,-3.922 l 239.46,239.539"
         style="fill:#ace3eb;fill-opacity:1;fill-rule:nonzero;stroke:none"
         id="path196" /><path
         d="m 4129.25,872.512 c -0.62,2.91 -1.31,5.808 -2.09,8.687 L 3910.95,664.922 c 2.88,-0.774 5.78,-1.481 8.69,-2.102 l 209.61,209.692"
         style="fill:#ace3eb;fill-opacity:1;fill-rule:nonzero;stroke:none"
         id="path198" /><path
         d="m 4099.05,939.84 c -1.51,2.051 -3.1,4.07 -4.71,6.07 l -248.1,-248.191 c 2.01,-1.61 4.02,-3.188 6.08,-4.707 l 246.73,246.828"
         style="fill:#ace3eb;fill-opacity:1;fill-rule:nonzero;stroke:none"
         id="path200" /><path
         d="m 4121.88,897.641 c -0.98,2.589 -2,5.148 -3.1,7.699 L 3886.82,673.289 c 2.54,-1.098 5.11,-2.129 7.69,-3.098 l 227.37,227.45"
         style="fill:#ace3eb;fill-opacity:1;fill-rule:nonzero;stroke:none"
         id="path202" /><path
         d="m 612.918,1492.28 -75.344,-75.34 c -14.047,-14.04 -36.82,-14.04 -50.871,0 -14.039,14.05 -14.039,36.82 0.008,50.87 l 75.34,75.34 c 14.051,14.04 36.82,14.04 50.867,-0.01 14.047,-14.04 14.043,-36.81 0,-50.86"
         style="fill:#f0349e;fill-opacity:1;fill-rule:nonzero;stroke:none"
         id="path204" /><path
         d="m 759.387,1638.76 -32.403,-32.41 c -14.043,-14.04 -36.816,-14.04 -50.863,0 -14.043,14.05 -14.043,36.82 0,50.87 l 32.402,32.4 c 14.047,14.05 36.821,14.05 50.868,0 14.043,-14.05 14.043,-36.82 -0.004,-50.86"
         style="fill:#f0349e;fill-opacity:1;fill-rule:nonzero;stroke:none"
         id="path206" /><path
         d="m 875.344,1754.7 -10.93,-10.92 c -14.047,-14.05 -36.82,-14.05 -50.863,0 -14.047,14.04 -14.047,36.81 0,50.86 l 10.929,10.92 c 14.047,14.06 36.821,14.06 50.864,0 14.047,-14.04 14.047,-36.81 0,-50.86"
         style="fill:#f0349e;fill-opacity:1;fill-rule:nonzero;stroke:none"
         id="path208" /><path
         d="m 4396.58,1254.65 -47.93,-47.92 c -8.94,-8.94 -23.42,-8.94 -32.35,0 -8.94,8.93 -8.94,23.41 0,32.35 l 47.92,47.92 c 8.94,8.93 23.42,8.93 32.36,0 8.93,-8.94 8.93,-23.42 0,-32.35"
         style="fill:#d3a5d8;fill-opacity:1;fill-rule:nonzero;stroke:none"
         id="path210" /><path
         d="m 4489.75,1347.82 -20.61,-20.62 c -8.94,-8.93 -23.42,-8.93 -32.36,0 -8.93,8.94 -8.93,23.43 0,32.36 l 20.62,20.61 c 8.93,8.94 23.42,8.94 32.35,0 8.94,-8.93 8.93,-23.43 0,-32.35"
         style="fill:#d3a5d8;fill-opacity:1;fill-rule:nonzero;stroke:none"
         id="path212" /><path
         d="m 4563.51,1421.57 -6.95,-6.95 c -8.94,-8.94 -23.42,-8.94 -32.35,0 -8.94,8.93 -8.94,23.42 0,32.35 l 6.95,6.95 c 8.93,8.94 23.42,8.94 32.35,0 8.94,-8.93 8.94,-23.42 0,-32.35"
         style="fill:#d3a5d8;fill-opacity:1;fill-rule:nonzero;stroke:none"
         id="path214" /><path
         d="m 3076.44,4170.96 47.92,47.92 c 8.94,8.94 23.42,8.94 32.36,0 8.93,-8.93 8.93,-23.42 0,-32.35 l -47.93,-47.92 c -8.94,-8.94 -23.42,-8.93 -32.35,0 -8.94,8.93 -8.94,23.42 0,32.35"
         style="fill:#d3a5d8;fill-opacity:1;fill-rule:nonzero;stroke:none"
         id="path216" /><path
         d="m 2983.26,4077.8 20.62,20.61 c 8.93,8.93 23.42,8.93 32.35,-0.01 8.93,-8.94 8.93,-23.42 0,-32.35 l -20.61,-20.61 c -8.94,-8.94 -23.43,-8.93 -32.36,0 -8.93,8.93 -8.93,23.42 0,32.36"
         style="fill:#d3a5d8;fill-opacity:1;fill-rule:nonzero;stroke:none"
         id="path218" /><path
         d="m 2909.5,4004.04 6.96,6.95 c 8.93,8.94 23.41,8.94 32.35,0 8.93,-8.94 8.93,-23.42 -0.01,-32.36 l -6.95,-6.95 c -8.93,-8.93 -23.42,-8.93 -32.35,0.01 -8.94,8.93 -8.93,23.42 0,32.35"
         style="fill:#d3a5d8;fill-opacity:1;fill-rule:nonzero;stroke:none"
         id="path220" /><path
         d="m 56.3789,4314.54 -75.3437,-75.35 c -14.0469,-14.04 -36.8204,-14.04 -50.8633,0.01 -14.0469,14.04 -14.043,36.81 0,50.86 l 75.34373,75.34 c 14.04687,14.05 36.82027,14.05 50.86717,0 14.043,-14.05 14.043,-36.82 -0.0039,-50.86"
         style="fill:#f0349e;fill-opacity:1;fill-rule:nonzero;stroke:none"
         id="path222" /><path
         d="m 202.852,4461 -32.403,-32.39 c -14.047,-14.05 -36.82,-14.05 -50.863,0 -14.047,14.04 -14.047,36.82 0,50.86 l 32.402,32.4 c 14.043,14.04 36.821,14.04 50.864,0 14.043,-14.05 14.043,-36.82 0,-50.87"
         style="fill:#f0349e;fill-opacity:1;fill-rule:nonzero;stroke:none"
         id="path224" /><path
         d="m 318.809,4576.96 -10.93,-10.93 c -14.043,-14.05 -36.816,-14.05 -50.867,0 -14.043,14.04 -14.043,36.81 0,50.86 l 10.933,10.93 c 14.043,14.04 36.817,14.04 50.864,-0.01 14.043,-14.04 14.043,-36.81 0,-50.85"
         style="fill:#f0349e;fill-opacity:1;fill-rule:nonzero;stroke:none"
         id="path226" /><path
         d="m 4973.03,-7.39844 -75.34,-75.33206 c -14.05,-14.0508 -36.82,-14.0508 -50.87,0 -14.04,14.0508 -14.04,36.8203 0,50.8594 l 75.34,75.3399 c 14.06,14.0507 36.83,14.0507 50.87,0 14.05,-14.0391 14.05,-36.80864 0,-50.86724"
         style="fill:#f0349e;fill-opacity:1;fill-rule:nonzero;stroke:none"
         id="path228" /><path
         d="m 5119.51,139.082 -32.4,-32.402 c -14.06,-14.0511 -36.83,-14.0511 -50.87,0.011 -14.05,14.039 -14.05,36.809 0,50.86 l 32.4,32.398 c 14.04,14.039 36.83,14.039 50.87,0 14.04,-14.051 14.04,-36.828 0,-50.867"
         style="fill:#f0349e;fill-opacity:1;fill-rule:nonzero;stroke:none"
         id="path230" /><path
         d="m 5235.47,255.031 -10.94,-10.929 c -14.05,-14.043 -36.82,-14.043 -50.86,0 -14.04,14.046 -14.04,36.82 0,50.867 l 10.93,10.929 c 14.04,14.043 36.81,14.043 50.87,0 14.04,-14.058 14.04,-36.828 0,-50.867"
         style="fill:#f0349e;fill-opacity:1;fill-rule:nonzero;stroke:none"
         id="path232" /><path
         d="m 5575.14,3303.28 75.34,75.34 c 14.05,14.05 36.82,14.05 50.86,0 14.06,-14.04 14.06,-36.82 0,-50.86 L 5626,3252.42 c -14.04,-14.04 -36.81,-14.04 -50.86,0 v 0 c -14.05,14.05 -14.05,36.82 0,50.86"
         style="fill:#f0349e;fill-opacity:1;fill-rule:nonzero;stroke:none"
         id="path234" /><path
         d="m 5428.67,3156.81 32.4,32.41 c 14.04,14.04 36.82,14.04 50.86,-0.01 h 0.01 c 14.04,-14.04 14.04,-36.82 -0.01,-50.86 l -32.4,-32.4 c -14.05,-14.05 -36.82,-14.04 -50.86,0 -14.04,14.05 -14.04,36.82 0,50.86"
         style="fill:#f0349e;fill-opacity:1;fill-rule:nonzero;stroke:none"
         id="path236" /><path
         d="m 5312.71,3040.87 10.93,10.93 c 14.05,14.04 36.83,14.04 50.87,-0.01 14.04,-14.04 14.04,-36.82 -0.01,-50.86 L 5363.57,2990 c -14.04,-14.05 -36.82,-14.04 -50.86,0 v 0.01 c -14.05,14.04 -14.04,36.81 0,50.86"
         style="fill:#f0349e;fill-opacity:1;fill-rule:nonzero;stroke:none"
         id="path238" /><path
         d="m 1079.41,2549.69 28.29,28.29 c 1.95,1.95 1.95,5.12 0,7.07 -1.96,1.95 -5.12,1.95 -7.07,0 l -28.29,-28.29 c -1.95,-1.95 -1.95,-5.11 0,-7.07 1.95,-1.95 5.12,-1.95 7.07,0"
         style="fill:#f7a60e;fill-opacity:1;fill-rule:nonzero;stroke:none"
         id="path240" /><path
         d="m 1163.24,2633.53 55.55,55.54 c 1.95,1.96 1.95,5.12 0,7.07 -1.95,1.96 -5.12,1.96 -7.07,0 l -55.55,-55.54 c -1.95,-1.95 -1.95,-5.12 0,-7.07 1.96,-1.96 5.12,-1.96 7.07,0 z m 111.1,111.09 55.54,55.55 c 1.95,1.95 1.95,5.12 0,7.07 -1.95,1.95 -5.12,1.95 -7.07,0 l -55.55,-55.55 c -1.95,-1.95 -1.95,-5.12 0,-7.07 1.96,-1.95 5.12,-1.95 7.08,0 z m 111.09,111.09 55.54,55.55 c 1.96,1.95 1.96,5.12 0,7.07 -1.95,1.95 -5.12,1.95 -7.07,0 l -55.54,-55.55 c -1.96,-1.95 -1.96,-5.11 0,-7.07 1.95,-1.95 5.11,-1.95 7.07,0 z m 111.09,111.1 55.54,55.54 c 1.96,1.96 1.96,5.12 0,7.07 -1.95,1.96 -5.11,1.96 -7.07,0 l -55.54,-55.54 c -1.95,-1.96 -1.95,-5.12 0,-7.07 1.95,-1.96 5.12,-1.96 7.07,0"
         style="fill:#f7a60e;fill-opacity:1;fill-rule:nonzero;stroke:none"
         id="path242" /><path
         d="m 1607.61,3077.9 28.28,28.28 c 1.96,1.95 1.96,5.12 0.01,7.07 -1.96,1.95 -5.12,1.95 -7.08,0 l -28.28,-28.28 c -1.95,-1.95 -1.95,-5.12 0,-7.07 1.95,-1.96 5.12,-1.96 7.07,0"
         style="fill:#f7a60e;fill-opacity:1;fill-rule:nonzero;stroke:none"
         id="path244" /></g></g></svg>
